# ProBuilder 4.0.5
# https://unity3d.com/unity/features/worldbuilding/probuilder
# 7/3/2019 2:20:00 PM

mtllib ./hex.mtl
o hex

g Pipe
v -1.3 1.8 -0.2839745
v -1.8 1.8 -1.15
v -1.3 3.8 -0.2839745
v -1.8 3.8 -1.15
v -0.3000001 1.8 -0.2839746
v -0.3000001 3.8 -0.2839746
v 0.1999999 1.8 -1.15
v 0.1999999 3.8 -1.15
v -0.3000002 1.8 -2.016026
v -0.3000002 3.8 -2.016026
v -1.3 1.8 -2.016026
v -1.3 3.8 -2.016026
v -0.8000001 1.8 -1.15
v -0.8000001 3.8 -1.15

vt 1 0
vt 0 0
vt 1 2
vt 0 2
vt 1.5 0
vt 0.4999999 0
vt 1.5 2
vt 0.4999999 2
vt -1 0
vt -1 2
vt -0.5000001 0
vt -1.5 0
vt -0.5000001 2
vt -1.5 2
vt 0.5 0.8660254
vt -0.5 0.8660254
vt 1.5 0.8660254
vt -1.5 0.8660254
vt 2 -8.742278E-08
vt -2 -8.742278E-08
vt 1.5 -0.8660254
vt -1.5 -0.8660254
vt 0.5000001 -0.8660254
vt -0.5000001 -0.8660254

vn -0.8660254 0 0.5
vn 5.960464E-08 0 1
vn 0.8660254 0 0.5
vn 0.8660254 0 -0.5000001
vn 0 0 -1
vn -0.8660254 0 -0.5000001
vn 0 -1 0
vn 0 1 0

g Pipe
usemtl Gem
f 13/1/7 1/15/7 2/2/7
f 14/9/8 4/2/8 3/16/8
f 13/1/7 5/17/7 1/15/7
f 14/9/8 3/16/8 6/18/8
f 13/1/7 7/19/7 5/17/7
f 14/9/8 6/18/8 8/20/8
f 13/1/7 9/21/7 7/19/7
f 14/9/8 8/20/8 10/22/8
f 13/1/7 11/23/7 9/21/7
f 14/9/8 10/22/8 12/24/8
f 13/1/7 2/2/7 11/23/7
f 14/9/8 12/24/8 4/2/8
f 4/4/1 2/2/1 1/1/1
f 1/1/1 3/3/1 4/4/1
f 3/8/2 1/6/2 5/5/2
f 5/5/2 6/7/2 3/8/2
f 6/4/3 5/2/3 7/1/3
f 7/1/3 8/3/3 6/4/3
f 8/10/4 7/9/4 9/2/4
f 9/2/4 10/4/4 8/10/4
f 10/14/5 9/12/5 11/11/5
f 11/11/5 12/13/5 10/14/5
f 12/10/6 11/9/6 2/2/6
f 2/2/6 4/4/6 12/10/6

